<svg width="1600" height="960" viewBox="0 0 1600 960" fill="none" xmlns="http://www.w3.org/2000/svg">
  <rect width="1600" height="960" fill="#A9DFF5"/>
  <rect y="540" width="1600" height="420" fill="#F4E2BE"/>
  <path d="M0 515C143 478 219 448 357 458C543 472 636 564 827 556C1040 547 1187 422 1365 424C1466 425 1527 460 1600 492V714H0V515Z" fill="#78C8E4"/>
  <path d="M0 599C145 548 248 562 364 582C530 611 672 696 852 678C1058 658 1142 548 1314 530C1432 518 1519 547 1600 578V747H0V599Z" fill="#32A0C8"/>
  <path d="M0 691C157 659 255 709 411 742C582 777 724 737 881 716C1071 691 1170 730 1324 764C1437 789 1511 792 1600 776V960H0V691Z" fill="#EDC68C"/>
  <circle cx="1245" cy="184" r="86" fill="#FFF2CB"/>
  <path d="M1186 783C1263 721 1352 660 1453 671C1494 675 1530 694 1564 721V960H1103C1127 887 1142 827 1186 783Z" fill="#D4A86A"/>
  <path d="M120 760C184 724 221 718 287 733C360 750 409 807 468 833V960H120V760Z" fill="#D4A86A"/>
</svg>
